<svg width="163" height="68" viewBox="0 0 163 68" fill="none" xmlns="http://www.w3.org/2000/svg">
<circle cx="27.5" cy="27.5" r="27.5" fill="#8D0AD9"/>
<path d="M44 27.5C44 37.165 36.6127 45 27.5 45C18.3873 45 11 37.165 11 27.5C11 17.835 18.3873 10 27.5 10C36.6127 10 44 17.835 44 27.5Z" fill="#FFF4F4"/>
<path d="M33 27C33 29.7614 30.7614 32 28 32C25.2386 32 23 29.7614 23 27C23 24.2386 25.2386 22 28 22C30.7614 22 33 24.2386 33 27Z" fill="#060606"/>
<path d="M64.0568 23.2727H65.3182L68.2841 30.517H68.3864L71.3523 23.2727H72.6136V32H71.625V25.3693H71.5398L68.8125 32H67.858L65.1307 25.3693H65.0455V32H64.0568V23.2727ZM74.7326 32V23.2727H79.9996V24.2102H75.7894V27.1591H79.7269V28.0966H75.7894V31.0625H80.0678V32H74.7326ZM81.4272 24.2102V23.2727H87.9727V24.2102H85.2283V32H84.1715V24.2102H81.4272ZM88.9421 32H87.8342L91.0387 23.2727H92.1296L95.3342 32H94.2262L91.6183 24.6534H91.5501L88.9421 32ZM89.3512 28.5909H93.8171V29.5284H89.3512V28.5909ZM100.426 32H99.3185L102.523 23.2727H103.614L106.819 32H105.711L103.103 24.6534H103.034L100.426 32ZM100.836 28.5909H105.301V29.5284H100.836V28.5909ZM108.178 32V23.2727H111.127C111.811 23.2727 112.371 23.3963 112.806 23.6435C113.243 23.8878 113.567 24.2188 113.777 24.6364C113.988 25.054 114.093 25.5199 114.093 26.0341C114.093 26.5483 113.988 27.0156 113.777 27.4361C113.57 27.8565 113.249 28.1918 112.814 28.4418C112.38 28.6889 111.823 28.8125 111.144 28.8125H109.03V27.875H111.11C111.578 27.875 111.955 27.794 112.239 27.6321C112.523 27.4702 112.729 27.2514 112.857 26.9759C112.988 26.6974 113.053 26.3835 113.053 26.0341C113.053 25.6847 112.988 25.3722 112.857 25.0966C112.729 24.821 112.522 24.6051 112.235 24.4489C111.948 24.2898 111.567 24.2102 111.093 24.2102H109.235V32H108.178ZM115.795 32V23.2727H118.744C119.429 23.2727 119.988 23.3963 120.423 23.6435C120.86 23.8878 121.184 24.2188 121.395 24.6364C121.605 25.054 121.71 25.5199 121.71 26.0341C121.71 26.5483 121.605 27.0156 121.395 27.4361C121.187 27.8565 120.866 28.1918 120.431 28.4418C119.997 28.6889 119.44 28.8125 118.761 28.8125H116.647V27.875H118.727C119.196 27.875 119.572 27.794 119.856 27.6321C120.14 27.4702 120.346 27.2514 120.474 26.9759C120.605 26.6974 120.67 26.3835 120.67 26.0341C120.67 25.6847 120.605 25.3722 120.474 25.0966C120.346 24.821 120.139 24.6051 119.852 24.4489C119.565 24.2898 119.184 24.2102 118.71 24.2102H116.852V32H115.795Z" fill="white"/>
</svg>
